<svg xmlns="http://www.w3.org/2000/svg" xmlns:xlink="http://www.w3.org/1999/xlink" width="430" height="400" viewBox="0 0 430 400">
  <defs>
    <clipPath id="clip-Thai-smart-card">
      <rect width="430" height="400"/>
    </clipPath>
  </defs>
  <g id="Thai-smart-card" clip-path="url(#clip-Thai-smart-card)">
    <g id="insert-card" transform="translate(41 4)" fill="#434343" stroke="#707070" stroke-linecap="round" stroke-width="30">
      <rect width="348" height="88" rx="44" stroke="none"/>
      <rect x="15" y="15" width="318" height="58" rx="29" fill="none"/>
    </g>
    <g id="card" transform="translate(509 -79) rotate(90)">
      <g id="Path_1" data-name="Path 1" transform="translate(475 170) rotate(90)" fill="#e1ecf0">
        <path d="M 245 345 L 5 345 L 5 20 C 5 15.9933500289917 6.560249805450439 12.22649955749512 9.393400192260742 9.393400192260742 C 12.22649955749512 6.560249805450439 15.9933500289917 5 20 5 L 230 5 C 234.0066528320312 5 237.7734985351562 6.560249805450439 240.6065979003906 9.393400192260742 C 243.4397430419922 12.22649955749512 245 15.9933500289917 245 20 L 245 345 Z" stroke="none"/>
        <path d="M 20 10 C 14.48599243164062 10 10 14.48599243164062 10 20 L 10 340 L 240 340 L 240 20 C 240 14.48599243164062 235.5140075683594 10 230 10 L 20 10 M 20 0 L 230 0 C 241.0456848144531 0 250 8.954315185546875 250 20 L 250 350 L 0 350 L 0 20 C 0 8.954315185546875 8.954315185546875 0 20 0 Z" stroke="none" fill="#707070"/>
      </g>
      <rect id="Rectangle_4" data-name="Rectangle 4" width="67" height="14" rx="7" transform="translate(171 380)" fill="#c4c4c4"/>
      <rect id="Rectangle_10" data-name="Rectangle 10" width="171" height="20" transform="translate(144 385) rotate(-90)" fill="#fff"/>
      <rect id="Rectangle_8" data-name="Rectangle 8" width="57" height="66" rx="20" transform="translate(176 249)" fill="#f8d40a"/>
      <rect id="Rectangle_6" data-name="Rectangle 6" width="94" height="14" rx="7" transform="translate(252 380)" fill="#c4c4c4"/>
      <rect id="Rectangle_13" data-name="Rectangle 13" width="283" height="14" rx="7" transform="translate(171 349)" fill="#c4c4c4"/>
      <rect id="Rectangle_11" data-name="Rectangle 11" width="94" height="8" rx="4" transform="translate(255 286)" fill="#c4c4c4"/>
      <rect id="Rectangle_15" data-name="Rectangle 15" width="94" height="8" rx="4" transform="translate(255 265)" fill="#c4c4c4"/>
      <rect id="Rectangle_16" data-name="Rectangle 16" width="94" height="8" rx="4" transform="translate(255 244)" fill="#c4c4c4"/>
      <rect id="Rectangle_17" data-name="Rectangle 17" width="40" height="3" rx="1.5" transform="translate(185 297)" fill="#9a9a9a"/>
      <rect id="Rectangle_18" data-name="Rectangle 18" width="40" height="3" rx="1.5" transform="translate(185 289)" fill="#9a9a9a"/>
      <rect id="Rectangle_19" data-name="Rectangle 19" width="40" height="3" rx="1.5" transform="translate(185 281)" fill="#9a9a9a"/>
      <rect id="Rectangle_20" data-name="Rectangle 20" width="40" height="3" rx="1.5" transform="translate(185 273)" fill="#9a9a9a"/>
      <rect id="Rectangle_21" data-name="Rectangle 21" width="40" height="3" rx="1.5" transform="translate(185 265)" fill="#9a9a9a"/>
      <rect id="Rectangle_22" data-name="Rectangle 22" width="15" height="2" transform="translate(147 380)" fill="#9a9a9a"/>
      <rect id="Rectangle_34" data-name="Rectangle 34" width="15" height="2" transform="translate(147 380)" fill="#9a9a9a"/>
      <rect id="Rectangle_90" data-name="Rectangle 90" width="15" height="2" transform="translate(147 284)" fill="#9a9a9a"/>
      <rect id="Rectangle_58" data-name="Rectangle 58" width="15" height="2" transform="translate(147 332)" fill="#9a9a9a"/>
      <rect id="Rectangle_74" data-name="Rectangle 74" width="15" height="2" transform="translate(147 236)" fill="#9a9a9a"/>
      <rect id="Rectangle_42" data-name="Rectangle 42" width="15" height="2" transform="translate(147 356)" fill="#9a9a9a"/>
      <rect id="Rectangle_82" data-name="Rectangle 82" width="15" height="2" transform="translate(147 260)" fill="#9a9a9a"/>
      <rect id="Rectangle_50" data-name="Rectangle 50" width="15" height="2" transform="translate(147 308)" fill="#9a9a9a"/>
      <rect id="Rectangle_29" data-name="Rectangle 29" width="15" height="2" transform="translate(147 368)" fill="#9a9a9a"/>
      <rect id="Rectangle_33" data-name="Rectangle 33" width="15" height="2" transform="translate(147 368)" fill="#9a9a9a"/>
      <rect id="Rectangle_86" data-name="Rectangle 86" width="15" height="2" transform="translate(147 272)" fill="#9a9a9a"/>
      <rect id="Rectangle_54" data-name="Rectangle 54" width="15" height="2" transform="translate(147 320)" fill="#9a9a9a"/>
      <rect id="Rectangle_70" data-name="Rectangle 70" width="15" height="2" transform="translate(147 224)" fill="#9a9a9a"/>
      <rect id="Rectangle_38" data-name="Rectangle 38" width="15" height="2" transform="translate(147 344)" fill="#9a9a9a"/>
      <rect id="Rectangle_78" data-name="Rectangle 78" width="15" height="2" transform="translate(147 248)" fill="#9a9a9a"/>
      <rect id="Rectangle_46" data-name="Rectangle 46" width="15" height="2" transform="translate(147 296)" fill="#9a9a9a"/>
      <rect id="Rectangle_25" data-name="Rectangle 25" width="15" height="2" transform="translate(147 374)" fill="#9a9a9a"/>
      <rect id="Rectangle_88" data-name="Rectangle 88" width="15" height="2" transform="translate(147 278)" fill="#9a9a9a"/>
      <rect id="Rectangle_56" data-name="Rectangle 56" width="15" height="2" transform="translate(147 326)" fill="#9a9a9a"/>
      <rect id="Rectangle_72" data-name="Rectangle 72" width="15" height="2" transform="translate(147 230)" fill="#9a9a9a"/>
      <rect id="Rectangle_40" data-name="Rectangle 40" width="15" height="2" transform="translate(147 350)" fill="#9a9a9a"/>
      <rect id="Rectangle_80" data-name="Rectangle 80" width="15" height="2" transform="translate(147 254)" fill="#9a9a9a"/>
      <rect id="Rectangle_48" data-name="Rectangle 48" width="15" height="2" transform="translate(147 302)" fill="#9a9a9a"/>
      <rect id="Rectangle_27" data-name="Rectangle 27" width="15" height="2" transform="translate(147 362)" fill="#9a9a9a"/>
      <rect id="Rectangle_31" data-name="Rectangle 31" width="15" height="2" transform="translate(147 362)" fill="#9a9a9a"/>
      <rect id="Rectangle_84" data-name="Rectangle 84" width="15" height="2" transform="translate(147 266)" fill="#9a9a9a"/>
      <rect id="Rectangle_52" data-name="Rectangle 52" width="15" height="2" transform="translate(147 314)" fill="#9a9a9a"/>
      <rect id="Rectangle_68" data-name="Rectangle 68" width="15" height="2" transform="translate(147 218)" fill="#9a9a9a"/>
      <rect id="Rectangle_36" data-name="Rectangle 36" width="15" height="2" transform="translate(147 338)" fill="#9a9a9a"/>
      <rect id="Rectangle_76" data-name="Rectangle 76" width="15" height="2" transform="translate(147 242)" fill="#9a9a9a"/>
      <rect id="Rectangle_44" data-name="Rectangle 44" width="15" height="2" transform="translate(147 290)" fill="#9a9a9a"/>
      <rect id="Rectangle_60" data-name="Rectangle 60" width="15" height="2" transform="translate(147 194)" fill="#9a9a9a"/>
      <rect id="Rectangle_23" data-name="Rectangle 23" width="15" height="2" transform="translate(147 377)" fill="#9a9a9a"/>
      <rect id="Rectangle_89" data-name="Rectangle 89" width="15" height="2" transform="translate(147 281)" fill="#9a9a9a"/>
      <rect id="Rectangle_57" data-name="Rectangle 57" width="15" height="2" transform="translate(147 329)" fill="#9a9a9a"/>
      <rect id="Rectangle_73" data-name="Rectangle 73" width="15" height="2" transform="translate(147 233)" fill="#9a9a9a"/>
      <rect id="Rectangle_41" data-name="Rectangle 41" width="15" height="2" transform="translate(147 353)" fill="#9a9a9a"/>
      <rect id="Rectangle_81" data-name="Rectangle 81" width="15" height="2" transform="translate(147 257)" fill="#9a9a9a"/>
      <rect id="Rectangle_49" data-name="Rectangle 49" width="15" height="2" transform="translate(147 305)" fill="#9a9a9a"/>
      <rect id="Rectangle_28" data-name="Rectangle 28" width="15" height="2" transform="translate(147 365)" fill="#9a9a9a"/>
      <rect id="Rectangle_32" data-name="Rectangle 32" width="15" height="2" transform="translate(147 365)" fill="#9a9a9a"/>
      <rect id="Rectangle_85" data-name="Rectangle 85" width="15" height="2" transform="translate(147 269)" fill="#9a9a9a"/>
      <rect id="Rectangle_53" data-name="Rectangle 53" width="15" height="2" transform="translate(147 317)" fill="#9a9a9a"/>
      <rect id="Rectangle_69" data-name="Rectangle 69" width="15" height="2" transform="translate(147 221)" fill="#9a9a9a"/>
      <rect id="Rectangle_37" data-name="Rectangle 37" width="15" height="2" transform="translate(147 341)" fill="#9a9a9a"/>
      <rect id="Rectangle_77" data-name="Rectangle 77" width="15" height="2" transform="translate(147 245)" fill="#9a9a9a"/>
      <rect id="Rectangle_45" data-name="Rectangle 45" width="15" height="2" transform="translate(147 293)" fill="#9a9a9a"/>
      <rect id="Rectangle_61" data-name="Rectangle 61" width="15" height="2" transform="translate(147 197)" fill="#9a9a9a"/>
      <rect id="Rectangle_24" data-name="Rectangle 24" width="15" height="2" transform="translate(147 371)" fill="#9a9a9a"/>
      <rect id="Rectangle_87" data-name="Rectangle 87" width="15" height="2" transform="translate(147 275)" fill="#9a9a9a"/>
      <rect id="Rectangle_55" data-name="Rectangle 55" width="15" height="2" transform="translate(147 323)" fill="#9a9a9a"/>
      <rect id="Rectangle_71" data-name="Rectangle 71" width="15" height="2" transform="translate(147 227)" fill="#9a9a9a"/>
      <rect id="Rectangle_39" data-name="Rectangle 39" width="15" height="2" transform="translate(147 347)" fill="#9a9a9a"/>
      <rect id="Rectangle_79" data-name="Rectangle 79" width="15" height="2" transform="translate(147 251)" fill="#9a9a9a"/>
      <rect id="Rectangle_47" data-name="Rectangle 47" width="15" height="2" transform="translate(147 299)" fill="#9a9a9a"/>
      <rect id="Rectangle_26" data-name="Rectangle 26" width="15" height="2" transform="translate(147 359)" fill="#9a9a9a"/>
      <rect id="Rectangle_30" data-name="Rectangle 30" width="15" height="2" transform="translate(147 359)" fill="#9a9a9a"/>
      <rect id="Rectangle_83" data-name="Rectangle 83" width="15" height="2" transform="translate(147 263)" fill="#9a9a9a"/>
      <rect id="Rectangle_51" data-name="Rectangle 51" width="15" height="2" transform="translate(147 311)" fill="#9a9a9a"/>
      <rect id="Rectangle_35" data-name="Rectangle 35" width="15" height="2" transform="translate(147 335)" fill="#9a9a9a"/>
      <rect id="Rectangle_75" data-name="Rectangle 75" width="15" height="2" transform="translate(147 239)" fill="#9a9a9a"/>
      <rect id="Rectangle_43" data-name="Rectangle 43" width="15" height="2" transform="translate(147 287)" fill="#9a9a9a"/>
      <rect id="Rectangle_59" data-name="Rectangle 59" width="15" height="2" transform="translate(147 191)" fill="#9a9a9a"/>
      <rect id="Rectangle_12" data-name="Rectangle 12" width="94" height="8" rx="4" transform="translate(255 307)" fill="#c4c4c4"/>
      <rect id="Rectangle_9" data-name="Rectangle 9" width="94" height="14" rx="7" transform="translate(360 380)" fill="#c4c4c4"/>
      <rect id="Rectangle_5" data-name="Rectangle 5" width="202" height="13" rx="6.5" transform="translate(144 188)" fill="#c4c4c4"/>
      <rect id="Rectangle_7" data-name="Rectangle 7" width="99" height="13" rx="6.5" transform="translate(355 188)" fill="#c4c4c4"/>
      <g id="image" transform="translate(-1 -20)">
        <path id="Path_3" data-name="Path 3" d="M0,0H82V90H0Z" transform="translate(373 249)" fill="#fff"/>
        <g id="iconfinder_user_male_172625" transform="translate(363.537 247)">
          <rect id="Rectangle_91" data-name="Rectangle 91" width="97" height="97" transform="translate(0.463)" fill="none"/>
        </g>
        <line id="Line_3" data-name="Line 3" x2="82" transform="translate(372.5 273.5)" fill="none" stroke="#e8e8e8" stroke-width="1"/>
        <line id="Line_5" data-name="Line 5" x2="82" transform="translate(373.5 296.5)" fill="none" stroke="#e8e8e8" stroke-width="1"/>
        <line id="Line_7" data-name="Line 7" x2="82" transform="translate(373.5 318.5)" fill="none" stroke="#e8e8e8" stroke-width="1"/>
        <line id="Line_8" data-name="Line 8" x2="82" transform="translate(373.5 318.5)" fill="none" stroke="#e8e8e8" stroke-width="1"/>
        <g id="Group_1" data-name="Group 1" transform="translate(86 74)">
          <line id="Line_6" data-name="Line 6" x2="59" transform="translate(298.5 233.5)" fill="none" stroke="#e8e8e8" stroke-width="1"/>
          <text id="_150" data-name="150" transform="translate(289 235)" fill="#707070" font-size="5" font-family="HelveticaNeue, Helvetica Neue"><tspan x="0" y="0">150</tspan></text>
          <text id="_150-2" data-name="150" transform="translate(358 235)" fill="#707070" font-size="5" font-family="HelveticaNeue, Helvetica Neue"><tspan x="0" y="0">150</tspan></text>
        </g>
        <g id="Group_2" data-name="Group 2" transform="translate(85 52)">
          <line id="Line_6-2" data-name="Line 6" x2="59" transform="translate(298.5 233.5)" fill="none" stroke="#e8e8e8" stroke-width="1"/>
          <text id="_160" data-name="160" transform="translate(289 235)" fill="#707070" font-size="5" font-family="HelveticaNeue, Helvetica Neue"><tspan x="0" y="0">160</tspan></text>
          <text id="_160-2" data-name="160" transform="translate(358 235)" fill="#707070" font-size="5" font-family="HelveticaNeue, Helvetica Neue"><tspan x="0" y="0">160</tspan></text>
        </g>
        <g id="Group_3" data-name="Group 3" transform="translate(85 28)">
          <line id="Line_6-3" data-name="Line 6" x2="59" transform="translate(298.5 233.5)" fill="none" stroke="#e8e8e8" stroke-width="1"/>
          <text id="_170" data-name="170" transform="translate(289 235)" fill="#707070" font-size="5" font-family="HelveticaNeue, Helvetica Neue"><tspan x="0" y="0">170</tspan></text>
          <text id="_170-2" data-name="170" transform="translate(358 235)" fill="#707070" font-size="5" font-family="HelveticaNeue, Helvetica Neue"><tspan x="0" y="0">170</tspan></text>
        </g>
        <path id="Path_2" data-name="Path 2" d="M53.755,59.359a80.751,80.751,0,0,1-.176-8.225c1.426-.748,3.981-5.519,4.413-9.549,1.121-.092,2.889-1.186,3.407-5.505a4.032,4.032,0,0,0-1.506-4.034c1.825-5.488,5.615-22.464-7.009-24.218-1.3-2.282-4.626-3.436-8.949-3.436-17.3.318-19.383,13.062-15.591,27.655a4.04,4.04,0,0,0-1.506,4.034c.52,4.319,2.286,5.413,3.407,5.505.43,4.028,3.087,8.8,4.517,9.549a80.771,80.771,0,0,1-.178,8.225C31.16,68.56,8.067,65.977,7,83.723H81.236C80.171,65.977,57.177,68.56,53.755,59.359Z" transform="translate(370.212 251.187)" fill="#b5b5b5"/>
      </g>
    </g>
    <path id="Icon_awesome-long-arrow-alt-up" data-name="Icon awesome-long-arrow-alt-up" d="M35.506,64.5v140.2a5.723,5.723,0,0,0,5.862,5.572H68.725a5.723,5.723,0,0,0,5.862-5.572V64.5h22.5c10.445,0,15.676-12,8.291-19.023L63.337,5.514a12.16,12.16,0,0,0-16.581,0L4.716,45.473C-2.67,52.493,2.561,64.5,13.006,64.5Z" transform="translate(104.818 176.36)" fill="#1892d3"/>
  </g>
</svg>
